<?xml version="1.0" encoding="UTF-8" standalone="no"?>
<!-- Created with Inkscape (http://www.inkscape.org/) -->

<svg
   xmlns:dc="http://purl.org/dc/elements/1.1/"
   xmlns:cc="http://creativecommons.org/ns#"
   xmlns:rdf="http://www.w3.org/1999/02/22-rdf-syntax-ns#"
   xmlns:svg="http://www.w3.org/2000/svg"
   xmlns="http://www.w3.org/2000/svg"
   xmlns:sodipodi="http://sodipodi.sourceforge.net/DTD/sodipodi-0.dtd"
   xmlns:inkscape="http://www.inkscape.org/namespaces/inkscape"
   width="205pt"
   height="60pt"
   viewBox="0 0 72.319442 21.166667"
   version="1.1"
   id="svg8"
   inkscape:version="0.92.2 (5c3e80d, 2017-08-06)"
   sodipodi:docname="drymass.svg"
   inkscape:export-filename="/home/paul/repos/DryMass/docs/logo/drymass.png"
   inkscape:export-xdpi="72"
   inkscape:export-ydpi="72">
  <defs
     id="defs2">
    <marker
       inkscape:stockid="Arrow1Lstart"
       orient="auto"
       refY="0.0"
       refX="0.0"
       id="marker1577"
       style="overflow:visible"
       inkscape:isstock="true">
      <path
         id="path1575"
         d="M 0.0,0.0 L 5.0,-5.0 L -12.5,0.0 L 5.0,5.0 L 0.0,0.0 z "
         style="fill-rule:evenodd;stroke:#000000;stroke-width:1.0pt"
         transform="scale(0.8) translate(12.5,0)" />
    </marker>
    <marker
       inkscape:stockid="Arrow1Lstart"
       orient="auto"
       refY="0.0"
       refX="0.0"
       id="marker1543"
       style="overflow:visible"
       inkscape:isstock="true">
      <path
         id="path1541"
         d="M 0.0,0.0 L 5.0,-5.0 L -12.5,0.0 L 5.0,5.0 L 0.0,0.0 z "
         style="fill-rule:evenodd;stroke:#000000;stroke-width:1.0pt"
         transform="scale(0.8) translate(12.5,0)" />
    </marker>
    <marker
       inkscape:stockid="Arrow1Lstart"
       orient="auto"
       refY="0.0"
       refX="0.0"
       id="marker1515"
       style="overflow:visible"
       inkscape:isstock="true">
      <path
         id="path1513"
         d="M 0.0,0.0 L 5.0,-5.0 L -12.5,0.0 L 5.0,5.0 L 0.0,0.0 z "
         style="fill-rule:evenodd;stroke:#000000;stroke-width:1.0pt"
         transform="scale(0.8) translate(12.5,0)" />
    </marker>
    <marker
       inkscape:stockid="Arrow1Mstart"
       orient="auto"
       refY="0.0"
       refX="0.0"
       id="Arrow1Mstart"
       style="overflow:visible"
       inkscape:isstock="true">
      <path
         id="path1233"
         d="M 0.0,0.0 L 5.0,-5.0 L -12.5,0.0 L 5.0,5.0 L 0.0,0.0 z "
         style="fill-rule:evenodd;stroke:#000000;stroke-width:1.0pt"
         transform="scale(0.4) translate(10,0)" />
    </marker>
    <marker
       inkscape:stockid="Arrow1Lend"
       orient="auto"
       refY="0.0"
       refX="0.0"
       id="Arrow1Lend"
       style="overflow:visible;"
       inkscape:isstock="true">
      <path
         id="path1230"
         d="M 0.0,0.0 L 5.0,-5.0 L -12.5,0.0 L 5.0,5.0 L 0.0,0.0 z "
         style="fill-rule:evenodd;stroke:#000000;stroke-width:1.0pt;"
         transform="scale(0.8) rotate(180) translate(12.5,0)" />
    </marker>
    <marker
       inkscape:stockid="Arrow1Lstart"
       orient="auto"
       refY="0.0"
       refX="0.0"
       id="Arrow1Lstart"
       style="overflow:visible"
       inkscape:isstock="true">
      <path
         id="path1227"
         d="M 0.0,0.0 L 5.0,-5.0 L -12.5,0.0 L 5.0,5.0 L 0.0,0.0 z "
         style="fill-rule:evenodd;stroke:#000000;stroke-width:1.0pt"
         transform="scale(0.8) translate(12.5,0)" />
    </marker>
  </defs>
  <sodipodi:namedview
     id="base"
     pagecolor="#ffffff"
     bordercolor="#666666"
     borderopacity="1.0"
     inkscape:pageopacity="0.0"
     inkscape:pageshadow="2"
     inkscape:zoom="4"
     inkscape:cx="120.91809"
     inkscape:cy="40.477747"
     inkscape:document-units="mm"
     inkscape:current-layer="layer1"
     showgrid="false"
     inkscape:object-paths="true"
     inkscape:snap-intersection-paths="true"
     inkscape:snap-smooth-nodes="true"
     inkscape:snap-midpoints="true"
     inkscape:snap-object-midpoints="true"
     inkscape:snap-center="true"
     inkscape:snap-bbox="true"
     inkscape:bbox-paths="true"
     inkscape:bbox-nodes="true"
     inkscape:snap-bbox-edge-midpoints="true"
     inkscape:snap-bbox-midpoints="false"
     inkscape:snap-global="true"
     inkscape:window-width="1863"
     inkscape:window-height="1025"
     inkscape:window-x="57"
     inkscape:window-y="27"
     inkscape:window-maximized="1"
     fit-margin-top="0"
     fit-margin-left="0"
     fit-margin-right="0"
     fit-margin-bottom="0"
     units="pt"
     inkscape:snap-page="true"
     inkscape:snap-grids="true"
     inkscape:snap-to-guides="true"
     showguides="false"
     inkscape:snap-nodes="true" />
  <metadata
     id="metadata5">
    <rdf:RDF>
      <cc:Work
         rdf:about="">
        <dc:format>image/svg+xml</dc:format>
        <dc:type
           rdf:resource="http://purl.org/dc/dcmitype/StillImage" />
        <dc:title></dc:title>
      </cc:Work>
    </rdf:RDF>
  </metadata>
  <g
     inkscape:label="Layer 1"
     inkscape:groupmode="layer"
     id="layer1"
     transform="translate(-66.44583,-111.77331)">
    <g
       id="g1116"
       transform="matrix(0.70012189,0,0,0.70012189,21.656404,4.5966629)"
       style="fill:#343131;fill-opacity:1">
      <path
         d="m 102.28205,173.64033 q 2.0929,0 3.57429,-1.48139 0.74931,-0.74931 1.11966,-1.62781 0.37035,-0.88711 0.37035,-1.95509 0,-2.08428 -1.49001,-3.57429 -1.49,-1.49 -3.57429,-1.49 h -1.73977 v 10.12858 z m 0,-11.95448 q 2.84221,0 4.8662,2.02399 1.01631,1.01631 1.51584,2.22209 0.50816,1.19717 0.50816,2.64411 0,2.85082 -2.024,4.87481 -2.01538,2.01538 -4.8662,2.01538 h -2.652719 q -0.18948,0 -0.361735,-0.0689 -0.163642,-0.0775 -0.292833,-0.19809 -0.120579,-0.12058 -0.198093,-0.28422 -0.0689,-0.17226 -0.0689,-0.36174 V 162.5988 q 0,-0.18948 0.0689,-0.35312 0.07751,-0.17226 0.198093,-0.29284 0.129191,-0.12057 0.292833,-0.18948 0.172255,-0.0775 0.361735,-0.0775 z"
         style="font-style:normal;font-variant:normal;font-weight:bold;font-stretch:normal;font-size:17.63888931px;line-height:1.25;font-family:Comfortaa;-inkscape-font-specification:'Comfortaa Bold';letter-spacing:0px;word-spacing:0px;fill:#343131;fill-opacity:1;stroke:none;stroke-width:0.26458332"
         id="path1087"
         inkscape:connector-curvature="0" />
      <path
         d="m 111.69198,166.71569 v 0.17225 q 0.64596,-0.51676 1.40388,-0.79237 0.75792,-0.27561 1.6192,-0.27561 0.37896,0 0.80959,0.0517 0.43925,0.0517 0.80099,0.18948 0.37035,0.12919 0.6115,0.36174 0.24116,0.23254 0.24116,0.60289 0,0.18948 -0.0775,0.35312 -0.0689,0.16364 -0.18948,0.29283 -0.12057,0.12058 -0.28422,0.18948 -0.16364,0.0689 -0.35312,0.0689 -0.16364,0 -0.37896,-0.0947 -0.5426,-0.21532 -1.17994,-0.21532 -0.62873,0 -1.17995,0.24115 -0.55121,0.23255 -0.96463,0.64596 -0.40479,0.4048 -0.64595,0.95601 -0.23255,0.55122 -0.23255,1.17995 v 3.92741 q 0,0.37035 -0.26699,0.63734 -0.25838,0.25838 -0.62873,0.25838 -0.37896,0 -0.64596,-0.25838 -0.25838,-0.26699 -0.25838,-0.63734 v -7.85482 q 0,-0.37035 0.25838,-0.62873 0.267,-0.267 0.64596,-0.267 0.37035,0 0.62873,0.267 0.26699,0.25838 0.26699,0.62873 z"
         style="font-style:normal;font-variant:normal;font-weight:bold;font-stretch:normal;font-size:17.63888931px;line-height:1.25;font-family:Comfortaa;-inkscape-font-specification:'Comfortaa Bold';letter-spacing:0px;word-spacing:0px;fill:#343131;fill-opacity:1;stroke:none;stroke-width:0.26458332"
         id="path1089"
         inkscape:connector-curvature="0" />
      <path
         d="m 120.83492,174.57051 -3.10059,-7.45002 q -0.0861,-0.19809 -0.0861,-0.4048 0,-0.18087 0.0689,-0.34451 0.0689,-0.16364 0.18948,-0.28422 0.12058,-0.12919 0.28422,-0.19809 0.16364,-0.0689 0.35312,-0.0689 0.267,0 0.49954,0.15503 0.23255,0.14642 0.35312,0.43925 l 2.42018,5.77915 2.42018,-5.79637 q 0.10336,-0.25838 0.29284,-0.41341 0.19809,-0.16365 0.55121,-0.16365 0.18948,0 0.35312,0.0689 0.16365,0.0689 0.28422,0.19809 0.12058,0.12058 0.18948,0.28422 0.0775,0.16364 0.0775,0.34451 0,0.18948 -0.0947,0.4048 l -4.95233,11.87697 q -0.11196,0.26699 -0.34451,0.43063 -0.23254,0.17226 -0.50815,0.17226 -0.38757,0 -0.64595,-0.25839 -0.24977,-0.25838 -0.24977,-0.64595 0,-0.20671 0.0861,-0.39619 z"
         style="font-style:normal;font-variant:normal;font-weight:bold;font-stretch:normal;font-size:17.63888931px;line-height:1.25;font-family:Comfortaa;-inkscape-font-specification:'Comfortaa Bold';letter-spacing:0px;word-spacing:0px;fill:#343131;fill-opacity:1;stroke:none;stroke-width:0.26458332"
         id="path1091"
         inkscape:connector-curvature="0" />
      <path
         d="M 126.78253,174.55328 V 162.5988 c 0,-0.12632 0.023,-0.24403 0.0689,-0.35312 0.0459,-0.11484 0.10909,-0.21245 0.18948,-0.29284 0.0861,-0.0861 0.18375,-0.15216 0.29284,-0.19809 0.10909,-0.0459 0.22967,-0.0689 0.36173,-0.0689 0.35599,0 0.62586,0.16364 0.8096,0.49093 l 4.63847,10.32667 4.63849,-10.32667 c 0.2067,-0.32729 0.47656,-0.49093 0.80959,-0.49093 0.12632,0 0.24403,0.023 0.35313,0.0689 0.11483,0.0459 0.21244,0.11196 0.29283,0.19809 0.0861,0.0804 0.15215,0.178 0.19809,0.29284 0.0459,0.10909 0.0689,0.2268 0.0689,0.35312 v 11.95448 c 0,0.25264 -0.089,0.46796 -0.26699,0.64596 -0.178,0.17799 -0.39332,0.26699 -0.64596,0.26699 -0.25264,0 -0.46796,-0.089 -0.64595,-0.26699 -0.178,-0.178 -0.267,-0.39332 -0.267,-0.64596 v -8.07875 l -3.74276,8.53523 c -0.17799,0.30431 -0.44211,0.45647 -0.79237,0.45647 -0.37896,0 -0.65743,-0.18374 -0.83543,-0.55121 l -3.69969,-8.44049 v 8.07875 c 0,0.25264 -0.089,0.46796 -0.26699,0.64596 -0.178,0.17799 -0.39332,0.26699 -0.64596,0.26699 -0.25264,0 -0.46796,-0.089 -0.64595,-0.26699 -0.178,-0.178 -0.267,-0.39332 -0.267,-0.64596 z"
         style="font-style:normal;font-variant:normal;font-weight:bold;font-stretch:normal;font-size:17.63888931px;line-height:1.25;font-family:Comfortaa;-inkscape-font-specification:'Comfortaa Bold';letter-spacing:0px;word-spacing:0px;fill:#343131;fill-opacity:1;stroke:none;stroke-width:0.26458332"
         id="path1093"
         inkscape:connector-curvature="0"
         sodipodi:nodetypes="ssccsscccscccsscsssccsccscsss" />
      <path
         d="m 145.17658,167.62003 q -0.63735,0 -1.18856,0.24115 -0.55122,0.24116 -0.95602,0.65457 -0.40479,0.4048 -0.64595,0.95602 -0.23255,0.55121 -0.23255,1.17133 0,0.62012 0.23255,1.17133 0.24116,0.55122 0.64595,0.96463 0.4048,0.4048 0.95602,0.64595 0.55121,0.24116 1.18856,0.24116 0.62873,0 1.17994,-0.24116 0.55122,-0.24115 0.95602,-0.65456 0.41341,-0.41342 0.64595,-0.95602 0.24116,-0.55121 0.24116,-1.17133 0,-0.62012 -0.24116,-1.16272 -0.23254,-0.55122 -0.64595,-0.96463 -0.4048,-0.41341 -0.95602,-0.65457 -0.55121,-0.24115 -1.17994,-0.24115 z m 3.02307,6.95048 v -0.17226 q -0.64596,0.51677 -1.40388,0.79237 -0.75792,0.27561 -1.61919,0.27561 -1.99816,0 -3.41065,-1.41249 -1.41249,-1.41249 -1.41249,-3.41064 0,-1.99816 1.41249,-3.41065 1.41249,-1.41249 3.41065,-1.41249 1.98093,0 3.41064,1.41249 1.41249,1.41249 1.41249,3.41065 v 3.92741 q 0,0.37035 -0.26699,0.63734 -0.25839,0.25838 -0.62873,0.25838 -0.37897,0 -0.64596,-0.25838 -0.25838,-0.26699 -0.25838,-0.63734 z"
         style="font-style:normal;font-variant:normal;font-weight:bold;font-stretch:normal;font-size:17.63888931px;line-height:1.25;font-family:Comfortaa;-inkscape-font-specification:'Comfortaa Bold';letter-spacing:0px;word-spacing:0px;fill:#343131;fill-opacity:1;stroke:none;stroke-width:0.26458332"
         id="path1095"
         inkscape:connector-curvature="0" />
      <path
         d="m 152.60557,170.87564 q -0.80959,-0.31006 -1.13688,-0.63734 h 0.009 q -0.65457,-0.66318 -0.65457,-1.55891 0,-0.65456 0.34451,-1.17994 0.35312,-0.53399 0.91295,-0.90434 0.55983,-0.37035 1.25746,-0.56844 0.70624,-0.20671 1.41249,-0.20671 2.15318,0 3.69486,1.73117 0.18087,0.22393 0.18087,0.5426 0,0.38757 -0.25838,0.64595 -0.24977,0.24977 -0.63735,0.24977 -0.2756,0 -0.4737,-0.15503 -0.18948,-0.15503 -0.37034,-0.33589 -0.8785,-0.8785 -2.13596,-0.8785 -1.24024,0 -1.98093,0.75792 -0.13781,0.1378 -0.13781,0.37896 0,0.24116 0.22393,0.32728 l 4.03077,1.32636 q 0.84404,0.32729 1.13688,0.63735 h -0.009 q 0.65457,0.66318 0.65457,1.5589 0,0.66318 -0.35312,1.18856 -0.34451,0.52538 -0.90434,0.90434 -0.55983,0.37035 -1.25746,0.56844 -0.69763,0.19809 -1.40387,0.19809 -2.17041,0 -3.69487,-1.71393 -0.18948,-0.24977 -0.18948,-0.55983 0,-0.38757 0.24977,-0.63734 0.25838,-0.25839 0.64596,-0.25839 0.28422,0 0.48231,0.17226 0.19809,0.16364 0.36173,0.31867 0.8785,0.8785 2.14458,0.8785 1.23162,0 1.98093,-0.77515 0.12919,-0.14641 0.12919,-0.35312 0,-0.24116 -0.23255,-0.3359 z"
         style="font-style:normal;font-variant:normal;font-weight:bold;font-stretch:normal;font-size:17.63888931px;line-height:1.25;font-family:Comfortaa;-inkscape-font-specification:'Comfortaa Bold';letter-spacing:0px;word-spacing:0px;fill:#343131;fill-opacity:1;stroke:none;stroke-width:0.26458332"
         id="path1097"
         inkscape:connector-curvature="0" />
      <path
         d="m 161.20591,170.87564 q -0.8096,-0.31006 -1.13689,-0.63734 h 0.009 q -0.65457,-0.66318 -0.65457,-1.55891 0,-0.65456 0.34451,-1.17994 0.35312,-0.53399 0.91295,-0.90434 0.55983,-0.37035 1.25746,-0.56844 0.70624,-0.20671 1.41249,-0.20671 2.15318,0 3.69486,1.73117 0.18087,0.22393 0.18087,0.5426 0,0.38757 -0.25838,0.64595 -0.24977,0.24977 -0.63734,0.24977 -0.27561,0 -0.47371,-0.15503 -0.18948,-0.15503 -0.37034,-0.33589 -0.8785,-0.8785 -2.13596,-0.8785 -1.24024,0 -1.98093,0.75792 -0.13781,0.1378 -0.13781,0.37896 0,0.24116 0.22394,0.32728 l 4.03076,1.32636 q 0.84405,0.32729 1.13688,0.63735 h -0.009 q 0.65456,0.66318 0.65456,1.5589 0,0.66318 -0.35312,1.18856 -0.34451,0.52538 -0.90434,0.90434 -0.55982,0.37035 -1.25746,0.56844 -0.69763,0.19809 -1.40387,0.19809 -2.17041,0 -3.69487,-1.71393 -0.18948,-0.24977 -0.18948,-0.55983 0,-0.38757 0.24977,-0.63734 0.25838,-0.25839 0.64596,-0.25839 0.28422,0 0.48231,0.17226 0.19809,0.16364 0.36174,0.31867 0.8785,0.8785 2.14457,0.8785 1.23162,0 1.98093,-0.77515 0.12919,-0.14641 0.12919,-0.35312 0,-0.24116 -0.23255,-0.3359 z"
         style="font-style:normal;font-variant:normal;font-weight:bold;font-stretch:normal;font-size:17.63888931px;line-height:1.25;font-family:Comfortaa;-inkscape-font-specification:'Comfortaa Bold';letter-spacing:0px;word-spacing:0px;fill:#343131;fill-opacity:1;stroke:none;stroke-width:0.26458332"
         id="path1099"
         inkscape:connector-curvature="0" />
    </g>
    <path
       style="fill:none;stroke:#2980b9;stroke-width:1.27124763;stroke-linecap:round;stroke-linejoin:round;stroke-miterlimit:4;stroke-dasharray:none;stroke-opacity:1"
       d="M 67.090402,112.4091 H 86.969257"
       id="path1617"
       inkscape:connector-curvature="0"
       sodipodi:nodetypes="cc" />
    <path
       style="color:#000000;font-style:normal;font-variant:normal;font-weight:normal;font-stretch:normal;font-size:medium;line-height:normal;font-family:sans-serif;font-variant-ligatures:normal;font-variant-position:normal;font-variant-caps:normal;font-variant-numeric:normal;font-variant-alternates:normal;font-feature-settings:normal;text-indent:0;text-align:start;text-decoration:none;text-decoration-line:none;text-decoration-style:solid;text-decoration-color:#000000;letter-spacing:normal;word-spacing:normal;text-transform:none;writing-mode:lr-tb;direction:ltr;text-orientation:mixed;dominant-baseline:auto;baseline-shift:baseline;text-anchor:start;white-space:normal;shape-padding:0;clip-rule:nonzero;display:inline;overflow:visible;visibility:visible;opacity:1;isolation:auto;mix-blend-mode:normal;color-interpolation:sRGB;color-interpolation-filters:linearRGB;solid-color:#000000;solid-opacity:1;vector-effect:none;fill:#2980b9;fill-opacity:1;fill-rule:nonzero;stroke:none;stroke-width:1.27091455;stroke-linecap:round;stroke-linejoin:round;stroke-miterlimit:4;stroke-dasharray:none;stroke-dashoffset:0;stroke-opacity:1;color-rendering:auto;image-rendering:auto;shape-rendering:auto;text-rendering:auto;enable-background:accumulate"
       d="m 77.012763,113.04838 c -0.225056,0.006 -0.429832,0.13345 -0.537378,0.33406 l -9.95015,18.6154 c -0.226288,0.42609 0.07756,0.94292 0.554713,0.94357 h 19.900299 c 0.47716,-6.5e-4 0.781001,-0.51748 0.554713,-0.94357 l -9.950151,-18.6154 c -0.11348,-0.21169 -0.334567,-0.3408 -0.572046,-0.33406 z m 1.128686,4.06168 0.555676,1.03941 0.555675,1.03942 0.555676,1.03941 0.555674,1.03941 0.555675,1.03942 0.555676,1.03941 0.555675,1.03941 0.555676,1.03942 0.555675,1.03941 0.555675,1.0394 0.555675,1.03942 0.555675,1.03941 0.555676,1.03942 c 0.637244,1.09548 0.654739,1.03941 -0.555676,1.03941 h -1.11135 -1.11135 -1.111351 -1.111351 -1.11135 -1.111351 -1.11135 -1.11135 -1.11135 -1.111351 -1.111352 -1.11135 -1.111351 -1.111349 c -1.271766,0.0678 -1.117972,0.0124 -0.555675,-1.03941 l 0.555675,-1.03942 0.555675,-1.03941 0.555674,-1.03942 0.555677,-1.0394 0.555674,-1.03941 0.555676,-1.03942 0.555674,-1.03941 0.555677,-1.03941 0.555675,-1.03942 0.555674,-1.03941 0.555677,-1.03941 0.555674,-1.03942 0.555676,-1.03941 c 0.353161,-0.66061 1.86954,-0.66061 2.2227,0 z"
       id="path1225"
       inkscape:connector-curvature="0"
       sodipodi:nodetypes="ccccccccscccccccccccccccccccccccccccccccccccccccccss" />
  </g>
</svg>
